<svg width="17" height="17" viewBox="0 0 17 17" fill="none" xmlns="http://www.w3.org/2000/svg">
<path fill-rule="evenodd" clip-rule="evenodd" d="M3.57118 0.257203C6.66504 -0.0857342 9.78732 -0.0857342 12.8812 0.257203C14.5942 0.449203 15.9762 1.7982 16.1772 3.5172C16.5441 6.65485 16.5441 9.82456 16.1772 12.9622C16.0755 13.7975 15.6946 14.5739 15.0964 15.1656C14.4981 15.7574 13.7175 16.1297 12.8812 16.2222C9.78738 16.5662 6.66498 16.5662 3.57118 16.2222C2.73483 16.1297 1.95425 15.7574 1.356 15.1656C0.757745 14.5739 0.376889 13.7975 0.275177 12.9622C-0.0917257 9.82489 -0.0917257 6.65551 0.275177 3.5182C0.376845 2.68307 0.757557 1.90675 1.35561 1.31505C1.95366 0.723347 2.73401 0.350947 3.57018 0.258203L3.57118 0.257203ZM8.22618 3.2472C8.42509 3.2472 8.61585 3.32622 8.75651 3.46687C8.89716 3.60752 8.97618 3.79829 8.97618 3.9972V7.4902H12.4692C12.6681 7.4902 12.8589 7.56922 12.9995 7.70987C13.1402 7.85052 13.2192 8.04129 13.2192 8.2402C13.2192 8.43912 13.1402 8.62988 12.9995 8.77053C12.8589 8.91119 12.6681 8.9902 12.4692 8.9902H8.97618V12.4832C8.97618 12.6821 8.89716 12.8729 8.75651 13.0135C8.61585 13.1542 8.42509 13.2332 8.22618 13.2332C8.02726 13.2332 7.8365 13.1542 7.69585 13.0135C7.5552 12.8729 7.47618 12.6821 7.47618 12.4832V8.9902H3.98318C3.78427 8.9902 3.5935 8.91119 3.45285 8.77053C3.3122 8.62988 3.23318 8.43912 3.23318 8.2402C3.23318 8.04129 3.3122 7.85052 3.45285 7.70987C3.5935 7.56922 3.78427 7.4902 3.98318 7.4902H7.47618V3.9972C7.47618 3.79829 7.5552 3.60752 7.69585 3.46687C7.8365 3.32622 8.02726 3.2472 8.22618 3.2472Z" fill="#007DCD"/>
</svg>
